<?xml version="1.0" standalone="no"?>
<!DOCTYPE svg PUBLIC "-//W3C//DTD SVG 20010904//EN"
 "http://www.w3.org/TR/2001/REC-SVG-20010904/DTD/svg10.dtd">
<svg version="1.0" xmlns="http://www.w3.org/2000/svg"
 width="906.000000pt" height="656.000000pt" viewBox="0 0 906.000000 656.000000"
 preserveAspectRatio="xMidYMid meet">
<metadata>
Created by potrace 1.16, written by Peter Selinger 2001-2019
</metadata>
<g transform="translate(0.000000,656.000000) scale(0.100000,-0.100000)"
fill="#000000" stroke="none">
<path d="M7575 3814 c-248 -35 -545 -74 -582 -76 -24 -2 -43 -7 -43 -11 0 -5
-4 -6 -8 -3 -4 2 -89 -6 -187 -20 -99 -13 -200 -27 -224 -30 -36 -5 -41 -8
-30 -18 17 -16 414 -236 425 -236 5 0 3 5 -4 12 -16 16 -15 23 4 43 12 12 19
13 30 4 17 -14 18 -46 3 -51 -9 -3 -9 -9 -1 -24 6 -12 7 -35 2 -64 -11 -53
-11 -86 -1 -51 9 35 41 41 221 46 l155 4 -120 -10 c-128 -9 -234 -25 -244 -35
-3 -3 -5 -49 -5 -102 1 -98 17 -182 34 -182 13 0 13 7 0 30 -6 11 -13 50 -16
87 -2 37 -7 78 -10 90 -3 17 1 24 18 27 27 6 323 43 420 52 37 4 65 11 62 15
-3 5 -14 9 -25 9 -11 0 -18 4 -14 9 3 6 22 4 46 -5 l41 -14 -4 25 c-3 15 -1
22 5 18 6 -4 8 0 4 10 -4 10 -9 23 -12 31 -6 14 75 26 178 26 27 0 47 5 47 11
0 27 -63 385 -69 390 -3 3 -46 0 -96 -7z"/>
<path d="M1206 3285 c4 -8 10 -15 15 -15 5 0 9 -20 9 -45 0 -31 8 -57 24 -83
14 -20 28 -50 32 -67 4 -16 18 -52 31 -80 12 -27 23 -60 23 -73 0 -13 4 -20
10 -17 6 4 8 23 6 43 l-5 37 12 -37 c20 -61 27 -55 27 26 0 49 -4 75 -10 71
-5 -3 -10 -17 -10 -30 0 -18 -4 -22 -21 -18 -11 3 -18 11 -15 18 3 8 -2 16
-10 19 -8 3 -14 15 -14 28 0 17 3 19 12 10 20 -20 31 -14 24 13 -5 20 -3 25
13 25 14 0 21 -8 24 -27 2 -16 5 20 6 78 l1 107 30 6 c17 3 30 10 30 16 0 6
-46 10 -125 10 -106 0 -124 -2 -119 -15z"/>
<path d="M2670 3291 c0 -5 14 -11 30 -14 l30 -6 0 -262 c0 -144 3 -259 7 -255
4 4 6 22 5 41 -2 19 2 35 8 35 6 0 10 24 10 56 0 34 -4 53 -10 49 -5 -3 -10 1
-10 9 0 9 5 16 10 16 6 0 10 43 10 108 l1 107 60 -117 c33 -65 67 -118 74
-118 8 0 21 7 29 16 9 9 16 11 16 4 0 -6 5 -8 11 -4 8 5 8 1 0 -14 -13 -25
-14 -43 -1 -22 7 12 12 12 22 2 6 -6 20 -12 30 -12 10 0 18 -4 18 -8 0 -5 14
-9 32 -10 17 0 35 -7 40 -14 19 -27 1 13 -81 173 -101 198 -120 225 -169 239
-45 12 -172 13 -172 1z"/>
<path d="M3394 3289 c-17 -5 -38 -17 -47 -27 -9 -10 -44 -88 -78 -173 -87
-220 -90 -229 -75 -223 7 3 40 73 74 157 l61 152 0 -169 c1 -136 3 -166 14
-158 7 6 18 7 25 3 8 -4 23 -6 35 -4 12 3 36 -3 52 -11 l30 -16 3 224 2 224
30 7 c17 4 30 11 30 16 0 11 -115 10 -156 -2z"/>
<path d="M1940 3091 c-90 -19 -135 -73 -108 -128 8 -16 21 -27 31 -27 9 1 17
-3 17 -8 0 -5 10 -8 23 -6 20 3 22 10 27 78 l5 75 34 3 c79 8 116 -30 127
-131 5 -42 9 -55 16 -44 5 9 15 14 23 11 7 -3 29 2 49 11 41 20 60 12 53 -21
-2 -13 0 -24 4 -24 5 0 9 10 9 23 0 33 -11 67 -20 62 -4 -3 -11 2 -14 11 -4 9
-2 13 5 8 8 -4 8 0 0 14 -14 26 -66 67 -103 81 -37 14 -137 21 -178 12z"/>
<path d="M3820 3091 c-87 -19 -132 -69 -111 -124 11 -28 51 -50 80 -45 12 2
17 20 21 78 l5 75 42 3 c79 6 110 -34 120 -148 l6 -68 -59 -6 c-55 -6 -144
-20 -205 -32 -29 -5 -53 -46 -44 -73 3 -9 18 -24 34 -34 34 -20 85 -81 95
-114 8 -24 37 -29 86 -13 l25 8 -27 1 c-45 2 -63 41 -62 133 1 99 8 108 90
108 l64 0 0 -76 c0 -78 -7 -102 -44 -143 l-21 -24 22 12 c12 6 29 21 37 32 14
21 15 21 43 -11 27 -30 34 -33 104 -36 61 -3 68 -2 42 6 l-33 11 0 162 c0 137
-3 168 -19 203 -19 43 -66 85 -113 103 -37 14 -137 21 -178 12z"/>
<path d="M4555 3093 c-36 -9 -35 -18 2 -18 27 0 40 -6 57 -28 18 -25 22 -47
27 -170 3 -78 6 -136 7 -129 5 33 110 110 132 97 16 -10 12 122 -5 155 -35 68
-139 112 -220 93z"/>
<path d="M5100 3094 c-104 -19 -156 -91 -107 -152 8 -10 12 -9 21 2 6 8 22 16
36 18 23 3 25 8 30 58 l5 55 47 3 c40 3 52 -1 73 -22 14 -14 28 -39 31 -56 5
-24 9 -28 20 -19 7 6 21 10 31 9 10 -1 20 -1 23 0 17 6 48 5 44 -2 -3 -4 2 -8
11 -8 37 0 -37 76 -97 99 -32 12 -133 21 -168 15z"/>
<path d="M4278 3078 l32 -11 0 -228 0 -229 -24 0 c-14 0 -28 -5 -31 -10 -5 -8
37 -10 129 -9 75 0 136 3 136 5 0 3 -11 9 -25 14 l-25 10 0 192 c0 178 2 196
21 228 l21 35 -30 -29 -30 -28 -12 22 c-17 31 -70 50 -137 49 -55 -1 -56 -2
-25 -11z"/>
<path d="M7300 2959 c-96 -3 -260 -7 -363 -8 -108 0 -197 -5 -208 -11 -15 -9
-19 -22 -19 -69 0 -35 5 -63 13 -69 6 -5 39 -13 72 -17 33 -4 68 -14 77 -22
24 -22 142 -32 382 -32 161 -1 197 -3 193 -14 -12 -30 -17 -124 -9 -152 8 -28
12 -30 60 -33 32 -2 52 1 52 7 0 6 10 11 21 11 28 0 160 39 176 52 10 8 12 -1
8 -43 -4 -38 -2 -49 5 -39 5 8 10 34 10 56 l0 42 58 15 c45 12 51 15 26 16
-17 1 -112 -19 -210 -43 -98 -25 -182 -42 -186 -40 -11 7 -10 126 2 144 14 22
19 9 21 -53 2 -64 12 -78 31 -48 11 19 14 19 30 4 17 -15 18 -13 18 50 0 77
-13 69 140 87 97 12 184 30 177 36 -2 2 -57 -3 -121 -12 -132 -17 -164 -14
-56 5 38 7 70 16 70 19 0 15 -100 11 -239 -8 -80 -11 -207 -21 -281 -24 -93
-2 -115 -1 -70 4 45 5 16 7 -95 5 -88 -1 -133 0 -100 4 50 5 34 7 -89 13 -86
4 -153 11 -160 18 -17 17 -14 109 4 121 10 7 181 9 515 6 334 -2 486 0 458 6
-24 6 -43 14 -43 18 0 10 -100 9 -370 -2z"/>
<path d="M1324 2844 c-20 -14 -20 -16 -6 -77 8 -34 19 -88 25 -119 l11 -58
173 0 c120 0 173 3 173 11 0 6 -6 9 -14 6 -7 -3 -19 0 -26 6 -10 9 -11 9 -6 0
5 -9 2 -11 -10 -6 -16 6 -15 8 4 16 12 6 22 14 22 20 0 5 7 7 15 3 12 -4 15 5
15 54 0 45 -4 60 -14 60 -23 0 -53 -46 -66 -100 l-12 -50 -109 0 -109 0 0 123
c0 119 0 122 -23 123 -12 1 -31 -5 -43 -12z"/>
<path d="M8207 2414 c5 -14 -1 -15 -49 -10 -38 3 -61 1 -74 -9 -11 -7 -46 -20
-78 -28 l-58 -16 6 24 c6 22 -17 55 -27 38 -11 -20 2 -58 26 -75 15 -11 27
-24 27 -30 0 -6 -8 -4 -18 5 -10 9 -33 23 -53 31 -30 13 -43 13 -103 0 -37 -8
-72 -12 -77 -8 -5 3 -9 1 -9 -5 0 -6 -10 -7 -27 -1 -16 5 -113 16 -218 25
-104 8 -293 24 -420 35 -126 11 -257 22 -290 24 -55 3 -57 3 -23 -7 l36 -10
-31 -21 c-42 -28 -67 -80 -67 -139 0 -35 5 -52 20 -64 11 -10 20 -20 20 -23 0
-12 -73 -41 -116 -47 -45 -6 -70 -22 -37 -24 10 0 13 -3 6 -6 -50 -19 53 -18
112 2 16 5 14 2 -7 -17 l-27 -23 50 -3 c43 -2 56 2 87 26 20 16 46 34 57 39
17 10 16 12 -18 27 -49 20 -61 51 -47 124 21 115 51 132 188 109 111 -20 166
-21 80 -3 -32 7 -61 15 -64 19 -18 18 92 4 191 -24 61 -17 133 -35 160 -41 28
-5 55 -13 60 -18 6 -4 36 -13 68 -20 31 -6 57 -15 57 -20 0 -4 -24 -2 -52 6
-29 7 -54 14 -55 14 0 0 1 -26 4 -58 6 -70 -17 -171 -53 -224 -13 -21 -23 -38
-21 -38 16 0 107 33 107 38 0 9 65 36 90 38 8 0 23 2 33 3 9 0 41 26 71 56 29
30 58 55 63 55 6 0 27 -25 47 -56 49 -73 103 -100 169 -83 53 13 96 50 104 90
3 16 15 36 26 44 17 12 18 17 8 29 -7 8 -10 19 -7 24 3 6 -3 12 -14 15 -11 3
-20 0 -21 -6 -1 -16 -27 54 -27 73 0 11 1 11 5 2 4 -10 9 -10 24 4 22 20 49
12 49 -14 0 -15 -6 -18 -30 -14 -22 3 -30 0 -30 -11 0 -19 19 -26 44 -17 15 5
29 -3 55 -33 62 -67 116 -83 172 -50 40 24 52 63 33 115 -8 22 -13 46 -12 52
2 6 -6 37 -17 69 -18 54 -21 57 -52 57 -26 0 -31 -3 -26 -16z m4 -79 c23 -30
44 -55 46 -55 3 0 3 16 1 35 -5 44 -1 44 18 -1 15 -36 13 -49 -9 -49 -7 0 -11
-11 -9 -24 5 -33 -14 -18 -39 31 -11 22 -23 38 -26 35 -2 -3 1 -16 8 -28 7
-13 14 -37 15 -54 2 -16 6 -40 9 -53 5 -21 3 -23 -17 -17 -13 4 -36 20 -52 37
-22 24 -25 32 -15 39 11 7 10 12 -5 26 -10 10 -16 12 -12 6 4 -7 5 -13 3 -13
-3 0 -15 16 -27 37 -17 29 -18 38 -8 44 19 12 32 11 54 -6 30 -23 37 -18 17
15 -9 17 -21 30 -26 30 -4 0 -5 5 -2 10 13 21 36 8 76 -45z m-311 -25 c0 -5
16 -36 35 -69 19 -32 35 -68 35 -80 0 -36 -19 -33 -42 6 -18 30 -24 34 -26 19
-2 -10 5 -30 16 -45 10 -14 22 -37 26 -49 8 -23 8 -23 29 -5 21 18 21 18 6 -7
-10 -15 -35 -30 -62 -39 -41 -13 -48 -12 -78 5 -20 12 -44 41 -61 73 l-28 53
38 30 c20 17 47 35 60 41 12 6 22 19 22 31 0 19 -1 19 -13 2 -12 -16 -14 -16
-26 -2 -8 9 -23 16 -35 17 -16 0 -13 4 14 16 23 10 36 11 38 4 2 -7 9 -5 19 4
14 15 33 12 33 -5z"/>
<path d="M7322 2274 c-32 -22 -51 -65 -68 -151 -18 -94 -18 -85 10 -116 33
-35 51 -26 66 31 6 26 16 55 21 64 12 24 12 95 -1 103 -6 4 -8 11 -5 16 4 5 2
9 -4 9 -17 0 -43 -47 -45 -82 -1 -30 2 -33 24 -30 23 2 24 1 9 -14 -14 -14
-20 -14 -42 -2 l-24 13 18 55 c24 74 54 95 94 66 39 -29 16 -187 -35 -238 -34
-33 -49 -35 -78 -8 -24 23 -28 14 -11 -24 19 -40 40 -41 77 -2 49 52 75 118
76 196 1 54 -3 70 -23 98 -28 37 -29 37 -59 16z"/>
<path d="M748 2215 c4 -32 12 -40 36 -36 5 1 13 -4 17 -11 7 -11 226 -13 1161
-15 634 -1 1164 -3 1177 -5 22 -3 24 0 26 49 l2 53 -1189 0 c-1052 0 -1188 -2
-1188 -15 0 -8 -7 -15 -15 -15 -18 0 -20 16 -2 23 6 3 3 6 -8 6 -18 1 -20 -4
-17 -34z m2333 12 c-1 -4 -1 -17 -1 -29 -1 -23 -1 -23 -16 -3 -13 17 -16 18
-24 5 -8 -13 -146 -15 -1117 -15 -684 -1 -1111 3 -1115 9 -25 36 -33 36 1125
36 616 0 1122 2 1125 5 7 7 24 1 23 -8z"/>
</g>
</svg>
